<svg width="541" height="183" viewBox="0 0 541 183" fill="none" xmlns="http://www.w3.org/2000/svg">
<path d="M252 91.5C252 116.366 238.068 138.967 215.363 155.39C192.659 171.812 161.245 182 126.5 182C91.7552 182 60.3406 171.812 37.6371 155.39C14.9323 138.967 1 116.366 1 91.5C1 66.6341 14.9323 44.0328 37.6371 27.61C60.3406 11.1881 91.7552 1 126.5 1C161.245 1 192.659 11.1881 215.363 27.61C238.068 44.0328 252 66.6341 252 91.5Z" fill="#B1D6FF" fill-opacity="0.5" stroke="#3077C6" stroke-width="2"/>
<path d="M89.708 98.608C90.676 98.608 91.44 98.428 92 98.068C92.568 97.7 92.852 97.212 92.852 96.604C92.852 96.22 92.78 95.888 92.636 95.608C92.5 95.328 92.216 95.076 91.784 94.852C91.352 94.628 90.688 94.404 89.792 94.18C88.92 93.964 88.16 93.716 87.512 93.436C86.872 93.148 86.372 92.776 86.012 92.32C85.66 91.864 85.484 91.272 85.484 90.544C85.484 89.832 85.684 89.22 86.084 88.708C86.492 88.188 87.056 87.792 87.776 87.52C88.496 87.24 89.332 87.1 90.284 87.1C91.3 87.1 92.184 87.236 92.936 87.508C93.696 87.772 94.34 88.1 94.868 88.492L93.98 89.86C93.5 89.532 92.972 89.264 92.396 89.056C91.82 88.84 91.124 88.732 90.308 88.732C89.316 88.732 88.612 88.888 88.196 89.2C87.78 89.504 87.572 89.9 87.572 90.388C87.572 90.756 87.672 91.064 87.872 91.312C88.08 91.552 88.428 91.772 88.916 91.972C89.404 92.164 90.076 92.376 90.932 92.608C91.756 92.824 92.472 93.084 93.08 93.388C93.696 93.692 94.176 94.092 94.52 94.588C94.864 95.084 95.036 95.724 95.036 96.508C95.036 97.404 94.78 98.132 94.268 98.692C93.756 99.244 93.092 99.648 92.276 99.904C91.468 100.152 90.612 100.276 89.708 100.276C88.564 100.276 87.588 100.112 86.78 99.784C85.98 99.448 85.308 99.044 84.764 98.572L85.916 97.24C86.412 97.648 86.98 97.98 87.62 98.236C88.268 98.484 88.964 98.608 89.708 98.608ZM109.835 99.364C109.403 99.652 108.879 99.876 108.263 100.036C107.647 100.196 107.043 100.276 106.451 100.276C105.091 100.276 104.043 99.92 103.307 99.208C102.571 98.496 102.203 97.58 102.203 96.46V88.924H99.2986V87.364H102.203V84.496L104.219 84.256V87.364H108.587L108.347 88.924H104.219V96.436C104.219 97.14 104.403 97.676 104.771 98.044C105.147 98.412 105.767 98.596 106.631 98.596C107.103 98.596 107.539 98.54 107.939 98.428C108.339 98.316 108.711 98.172 109.055 97.996L109.835 99.364ZM114.313 100V98.452H116.281V88.912H114.313V87.364H117.817L118.189 90.352C118.677 89.312 119.269 88.508 119.965 87.94C120.661 87.372 121.581 87.088 122.725 87.088C123.077 87.088 123.389 87.116 123.661 87.172C123.941 87.22 124.225 87.284 124.513 87.364L123.925 89.164C123.661 89.092 123.421 89.04 123.205 89.008C122.989 88.968 122.741 88.948 122.461 88.948C121.493 88.948 120.661 89.292 119.965 89.98C119.269 90.668 118.713 91.708 118.297 93.1V98.452H120.865V100H114.313ZM122.569 91.636V88.888L122.773 87.364H124.513L124.225 91.636H122.569ZM134.98 87.364V98.404H138.544V100H129.064V98.404H132.964V88.96H129.184V87.364H134.98ZM133.372 81.448C133.82 81.448 134.176 81.584 134.44 81.856C134.712 82.128 134.848 82.46 134.848 82.852C134.848 83.26 134.712 83.604 134.44 83.884C134.176 84.156 133.82 84.292 133.372 84.292C132.948 84.292 132.6 84.156 132.328 83.884C132.056 83.604 131.92 83.26 131.92 82.852C131.92 82.46 132.056 82.128 132.328 81.856C132.6 81.584 132.948 81.448 133.372 81.448ZM142.975 100V87.364H144.691L144.847 89.116C145.359 88.468 145.999 87.972 146.767 87.628C147.543 87.276 148.295 87.1 149.023 87.1C150.263 87.1 151.163 87.428 151.723 88.084C152.291 88.74 152.575 89.652 152.575 90.82V100H150.559V92.308C150.559 91.444 150.511 90.748 150.415 90.22C150.319 89.684 150.119 89.296 149.815 89.056C149.511 88.808 149.039 88.684 148.399 88.684C147.903 88.684 147.435 88.792 146.995 89.008C146.563 89.224 146.175 89.496 145.831 89.824C145.495 90.144 145.215 90.468 144.991 90.796V100H142.975ZM167.637 86.02L168.261 87.916C167.725 88.084 167.153 88.188 166.545 88.228C165.937 88.268 165.277 88.288 164.565 88.288C165.293 88.624 165.841 89.06 166.209 89.596C166.577 90.124 166.761 90.748 166.761 91.468C166.761 92.3 166.573 93.04 166.197 93.688C165.821 94.336 165.277 94.844 164.565 95.212C163.861 95.58 163.009 95.764 162.009 95.764C161.585 95.764 161.229 95.744 160.941 95.704C160.661 95.664 160.389 95.604 160.125 95.524C159.933 95.652 159.773 95.828 159.645 96.052C159.525 96.276 159.465 96.508 159.465 96.748C159.465 97.052 159.585 97.304 159.825 97.504C160.065 97.704 160.509 97.804 161.157 97.804H163.437C164.285 97.804 165.045 97.956 165.717 98.26C166.397 98.564 166.929 98.972 167.313 99.484C167.705 99.996 167.901 100.58 167.901 101.236C167.901 102.476 167.373 103.428 166.317 104.092C165.269 104.756 163.785 105.088 161.865 105.088C160.521 105.088 159.461 104.948 158.685 104.668C157.909 104.396 157.353 103.976 157.017 103.408C156.689 102.848 156.525 102.14 156.525 101.284H158.349C158.349 101.772 158.445 102.176 158.637 102.496C158.829 102.816 159.177 103.052 159.681 103.204C160.185 103.364 160.909 103.444 161.853 103.444C162.781 103.444 163.537 103.364 164.121 103.204C164.713 103.052 165.149 102.82 165.429 102.508C165.717 102.204 165.861 101.824 165.861 101.368C165.861 100.768 165.589 100.316 165.045 100.012C164.501 99.708 163.821 99.556 163.005 99.556H160.749C159.661 99.556 158.857 99.316 158.337 98.836C157.825 98.356 157.569 97.804 157.569 97.18C157.569 96.772 157.685 96.376 157.917 95.992C158.157 95.608 158.505 95.268 158.961 94.972C158.233 94.588 157.697 94.112 157.353 93.544C157.009 92.976 156.837 92.288 156.837 91.48C156.837 90.624 157.049 89.868 157.473 89.212C157.897 88.548 158.489 88.028 159.249 87.652C160.009 87.276 160.885 87.088 161.877 87.088C162.941 87.08 163.805 87.036 164.469 86.956C165.133 86.868 165.701 86.744 166.173 86.584C166.653 86.424 167.141 86.236 167.637 86.02ZM161.877 88.564C160.861 88.564 160.109 88.84 159.621 89.392C159.141 89.936 158.901 90.632 158.901 91.48C158.901 92.336 159.149 93.04 159.645 93.592C160.141 94.144 160.901 94.42 161.925 94.42C162.821 94.42 163.501 94.16 163.965 93.64C164.437 93.12 164.673 92.396 164.673 91.468C164.673 90.516 164.437 89.796 163.965 89.308C163.501 88.812 162.805 88.564 161.877 88.564Z" fill="black"/>
<path d="M540 91.5C540 116.366 526.068 138.967 503.363 155.39C480.659 171.812 449.245 182 414.5 182C379.755 182 348.341 171.812 325.637 155.39C302.932 138.967 289 116.366 289 91.5C289 66.6341 302.932 44.0328 325.637 27.61C348.341 11.1881 379.755 1 414.5 1C449.245 1 480.659 11.1881 503.363 27.61C526.068 44.0328 540 66.6341 540 91.5Z" fill="#B1D6FF" fill-opacity="0.5" stroke="#3077C6" stroke-width="2"/>
<path d="M373.412 100V87.364H375.128L375.284 89.116C375.796 88.468 376.436 87.972 377.204 87.628C377.98 87.276 378.732 87.1 379.46 87.1C380.7 87.1 381.6 87.428 382.16 88.084C382.728 88.74 383.012 89.652 383.012 90.82V100H380.996V92.308C380.996 91.444 380.948 90.748 380.852 90.22C380.756 89.684 380.556 89.296 380.252 89.056C379.948 88.808 379.476 88.684 378.836 88.684C378.34 88.684 377.872 88.792 377.432 89.008C377 89.224 376.612 89.496 376.268 89.824C375.932 90.144 375.652 90.468 375.428 90.796V100H373.412ZM389.819 87.364V96.316C389.819 97.148 389.991 97.748 390.335 98.116C390.679 98.484 391.215 98.668 391.943 98.668C392.639 98.668 393.295 98.472 393.911 98.08C394.535 97.68 395.019 97.208 395.363 96.664V87.364H397.379V100H395.663L395.495 98.296C394.999 98.936 394.387 99.428 393.659 99.772C392.931 100.108 392.195 100.276 391.451 100.276C390.227 100.276 389.311 99.952 388.703 99.304C388.103 98.648 387.803 97.732 387.803 96.556V87.364H389.819ZM410.521 87.1C410.929 87.1 411.317 87.188 411.685 87.364C412.061 87.54 412.369 87.88 412.609 88.384C412.849 88.888 412.969 89.624 412.969 90.592V100H411.097V90.916C411.097 90.124 411.049 89.552 410.953 89.2C410.857 88.848 410.581 88.672 410.125 88.672C409.749 88.672 409.373 88.792 408.997 89.032C408.629 89.264 408.269 89.648 407.917 90.184V100H406.033V90.916C406.033 90.124 405.985 89.552 405.889 89.2C405.793 88.848 405.517 88.672 405.061 88.672C404.669 88.672 404.289 88.792 403.921 89.032C403.561 89.264 403.205 89.648 402.853 90.184V100H400.993V87.364H402.577L402.697 88.828C403.041 88.34 403.425 87.932 403.849 87.604C404.281 87.268 404.813 87.1 405.445 87.1C405.925 87.1 406.377 87.216 406.801 87.448C407.225 87.672 407.537 88.112 407.737 88.768C408.081 88.272 408.469 87.872 408.901 87.568C409.333 87.256 409.873 87.1 410.521 87.1ZM418.6 89.008C419.064 88.4 419.596 87.932 420.196 87.604C420.804 87.268 421.472 87.1 422.2 87.1C423.328 87.1 424.24 87.372 424.936 87.916C425.632 88.46 426.14 89.228 426.46 90.22C426.78 91.204 426.94 92.356 426.94 93.676C426.94 94.948 426.748 96.084 426.364 97.084C425.98 98.076 425.416 98.856 424.672 99.424C423.936 99.992 423.024 100.276 421.936 100.276C420.472 100.276 419.324 99.748 418.492 98.692L418.348 100H416.584V82.276L418.6 82.024V89.008ZM421.456 98.644C422.512 98.644 423.324 98.236 423.892 97.42C424.46 96.604 424.744 95.352 424.744 93.664C424.744 92.56 424.632 91.644 424.408 90.916C424.184 90.18 423.848 89.632 423.4 89.272C422.96 88.904 422.416 88.72 421.768 88.72C421.064 88.72 420.444 88.932 419.908 89.356C419.38 89.772 418.944 90.236 418.6 90.748V97.012C418.928 97.508 419.34 97.904 419.836 98.2C420.34 98.496 420.88 98.644 421.456 98.644ZM432.559 94.396C432.599 95.372 432.787 96.172 433.123 96.796C433.459 97.412 433.903 97.868 434.455 98.164C435.007 98.452 435.607 98.596 436.255 98.596C436.903 98.596 437.487 98.5 438.007 98.308C438.535 98.116 439.075 97.832 439.627 97.456L440.575 98.788C439.983 99.252 439.307 99.616 438.547 99.88C437.795 100.144 437.023 100.276 436.231 100.276C435.007 100.276 433.963 100 433.099 99.448C432.235 98.896 431.575 98.128 431.119 97.144C430.671 96.152 430.447 95.004 430.447 93.7C430.447 92.42 430.675 91.284 431.131 90.292C431.587 89.3 432.227 88.52 433.051 87.952C433.875 87.384 434.847 87.1 435.967 87.1C437.031 87.1 437.947 87.352 438.715 87.856C439.483 88.352 440.071 89.064 440.479 89.992C440.895 90.912 441.103 92.012 441.103 93.292C441.103 93.508 441.099 93.712 441.091 93.904C441.083 94.088 441.071 94.252 441.055 94.396H432.559ZM435.991 88.756C435.055 88.756 434.271 89.088 433.639 89.752C433.015 90.416 432.659 91.444 432.571 92.836H439.159C439.135 91.484 438.839 90.468 438.271 89.788C437.703 89.1 436.943 88.756 435.991 88.756ZM445.485 100V98.452H447.453V88.912H445.485V87.364H448.989L449.361 90.352C449.849 89.312 450.441 88.508 451.137 87.94C451.833 87.372 452.753 87.088 453.897 87.088C454.249 87.088 454.561 87.116 454.833 87.172C455.113 87.22 455.397 87.284 455.685 87.364L455.097 89.164C454.833 89.092 454.593 89.04 454.377 89.008C454.161 88.968 453.913 88.948 453.633 88.948C452.665 88.948 451.833 89.292 451.137 89.98C450.441 90.668 449.885 91.708 449.469 93.1V98.452H452.037V100H445.485ZM453.741 91.636V88.888L453.945 87.364H455.685L455.397 91.636H453.741Z" fill="black"/>
</svg>
